<svg width="22" height="19" viewBox="0 0 20 19" fill="none" xmlns="http://www.w3.org/2000/svg">
    <path d="M1.781 16.06c-1.83-3.217-.585-8.263 3.2-12.039C9.28-.264 15.224-1.286 18.259 1.74c.003.004.006.009.011.013-.607 1.762-2.541 5.51-8.338 7.537-5.31 1.858-7.36 4.812-8.15 6.771zm17.33-13.22c-.46 1.07-1.26 2.469-2.64 3.844-1.386 1.383-3.357 2.742-6.148 3.718-5.665 1.981-7.248 5.224-7.69 6.795.022.021.04.043.06.064 3.034 3.025 8.978 2.003 13.276-2.283 3.824-3.814 5.054-8.925 3.142-12.137z" fill="#505050"/>
</svg>
