<?xml version="1.0" encoding="utf-8"?><svg xmlns="http://www.w3.org/2000/svg" xmlns:xlink="http://www.w3.org/1999/xlink"><symbol viewBox="0 0 24 24" id="account" xmlns="http://www.w3.org/2000/svg"><path d="M21 24h-2v-5.043A2.96 2.96 0 0016.043 16H7.957A2.96 2.96 0 005 18.957V24H3v-5.043A4.963 4.963 0 017.957 14h8.086A4.963 4.963 0 0121 18.957zm-9-12a6 6 0 116-6 6.006 6.006 0 01-6 6zm0-10a4 4 0 104 4 4 4 0 00-4-4z" data-name="01 align center"/></symbol><symbol viewBox="0 0 70 70" id="arrow" xmlns="http://www.w3.org/2000/svg"><path d="M48.707 36.707a1 1 0 000-1.414l-6.364-6.364a1 1 0 00-1.414 1.414L46.586 36l-5.657 5.657a1 1 0 001.414 1.414l6.364-6.364zM22 37h26v-2H22v2z"/></symbol><symbol viewBox="0 0 64 64" class="chovered-paths" id="burger" xmlns="http://www.w3.org/2000/svg"><path d="M53 21H11c-1.7 0-3-1.3-3-3s1.3-3 3-3h42c1.7 0 3 1.3 3 3s-1.3 3-3 3zm0 14H11c-1.7 0-3-1.3-3-3s1.3-3 3-3h42c1.7 0 3 1.3 3 3s-1.3 3-3 3zm0 14H11c-1.7 0-3-1.3-3-3s1.3-3 3-3h42c1.7 0 3 1.3 3 3s-1.3 3-3 3z" data-original="#000000" class="chovered-path"/></symbol><symbol viewBox="0 0 329.27 329" id="close" xmlns="http://www.w3.org/2000/svg"><path d="M194.8 164.77L323.013 36.555c8.343-8.34 8.343-21.825 0-30.164-8.34-8.34-21.825-8.34-30.164 0L164.633 134.605 36.422 6.391c-8.344-8.34-21.824-8.34-30.164 0-8.344 8.34-8.344 21.824 0 30.164l128.21 128.215L6.259 292.984c-8.344 8.34-8.344 21.825 0 30.164a21.266 21.266 0 0015.082 6.25c5.46 0 10.922-2.09 15.082-6.25l128.21-128.214 128.216 128.214a21.273 21.273 0 0015.082 6.25c5.46 0 10.922-2.09 15.082-6.25 8.343-8.34 8.343-21.824 0-30.164zm0 0" data-original="#000000"/></symbol><symbol viewBox="0 0 24 24" id="dropdown" xmlns="http://www.w3.org/2000/svg"><path xmlns="http://www.w3.org/2000/svg" d="M16.298 9.298C16.485 9.1 16.72 9 17 9s.515.1.702.298c.199.187.298.421.298.702s-.1.515-.298.702l-4.895 4.895c-.21.21-.48.315-.807.315a1.13 1.13 0 01-.807-.316l-4.895-4.894C6.1 10.515 6 10.28 6 10s.1-.515.298-.702A.96.96 0 017 9c.292 0 .526.1.702.298l4.894 4.895c.059.059-.029.1-.263.123-.222.023-.45.023-.684 0-.222-.024-.304-.065-.246-.123z" data-original="#000000"/></symbol><symbol viewBox="0 0 24 24" id="search" xmlns="http://www.w3.org/2000/svg"><path d="M23.707 22.293l-5.969-5.969a10.016 10.016 0 10-1.414 1.414l5.969 5.969a1 1 0 001.414-1.414zM10 18a8 8 0 118-8 8.009 8.009 0 01-8 8z"/></symbol><symbol viewBox="0 0 20 19" id="seed" xmlns="http://www.w3.org/2000/svg"><path d="M1.781 16.06c-1.83-3.217-.585-8.263 3.2-12.039C9.28-.264 15.224-1.286 18.259 1.74c.003.004.006.009.011.013-.607 1.762-2.541 5.51-8.338 7.537-5.31 1.858-7.36 4.812-8.15 6.771zm17.33-13.22a12.298 12.298 0 01-2.64 3.844c-1.386 1.383-3.357 2.742-6.148 3.718-5.665 1.981-7.248 5.224-7.69 6.795.022.021.04.043.06.064 3.034 3.025 8.978 2.003 13.276-2.283 3.824-3.814 5.054-8.925 3.142-12.137z"/></symbol><symbol viewBox="0 0 24 24" id="shop" xmlns="http://www.w3.org/2000/svg"><g data-name="01 align center"><path d="M24 3H4.242L4.2 2.649A3 3 0 001.222 0H0v2h1.222a1 1 0 01.993.883L3.8 16.351A3 3 0 006.778 19H20v-2H6.778a1 1 0 01-.993-.884L5.654 15h16.182zm-3.836 10H5.419l-.941-8h17.129z"/><circle cx="7" cy="22" r="2"/><circle cx="17" cy="22" r="2"/></g></symbol></svg>